<svg viewBox="0 0 32 32" fill="none" xmlns="http://www.w3.org/2000/svg">
<path fill-rule="evenodd" clip-rule="evenodd" d="M16 29.44C23.4227 29.44 29.44 23.4227 29.44 16C29.44 8.57729 23.4227 2.56 16 2.56C8.57729 2.56 2.56 8.57729 2.56 16C2.56 23.4227 8.57729 29.44 16 29.44ZM16 32C24.8366 32 32 24.8366 32 16C32 7.16344 24.8366 0 16 0C7.16344 0 0 7.16344 0 16C0 24.8366 7.16344 32 16 32Z" fill="#FAFAF0"/>
<path d="M22.8 14C23.2418 14 23.6 14.3582 23.6 14.8L23.6 17.2C23.6 17.6418 23.2418 18 22.8 18L9.19997 18C8.75815 18 8.39998 17.6418 8.39998 17.2L8.39998 14.8C8.39998 14.3582 8.75815 14 9.19998 14L22.8 14Z" fill="#FAFAF0"/>
<path d="M18 22.8001C18 23.2419 17.6418 23.6001 17.2 23.6001L14.8 23.6001C14.3582 23.6001 14 23.2419 14 22.8001L14 9.2001C14 8.75827 14.3582 8.4001 14.8 8.4001L17.2 8.4001C17.6418 8.4001 18 8.75827 18 9.2001L18 22.8001Z" fill="#FAFAF0"/>
</svg>
