<svg viewBox="0 0 1441 233" fill="none" xmlns="http://www.w3.org/2000/svg">
<path fill-rule="evenodd" clip-rule="evenodd" d="M209.26 39.3405V41.3017L209.242 41.3391C187.295 51.1452 180.813 58.3925 169.027 80.3583H167.122C159.202 59.8868 136.545 47.9699 119.436 47.9699C115.812 47.9699 99.2258 48.1941 99.2258 63.9773C99.2258 79.7133 114.943 92.8771 132.772 107.81C156.105 127.352 183.055 149.924 183.129 185.256C183.204 221.25 155.653 232.494 128.57 232.494C120.9 232.494 108.18 232.518 93.467 232.545C61.2038 232.606 19.3534 232.684 0.136719 232.569V230.29C20.0853 223.23 34.393 208.66 41.2666 192.709H43.3212C50.0642 209.165 72.5903 222.931 94.3881 223.043C114.056 223.136 126.889 212.359 126.889 193.979C126.889 174.882 107.097 157.002 86.6493 138.529C64.7995 118.79 42.2005 98.3742 42.2005 75.0723C42.2005 45.7098 67.4351 40.2931 86.5431 40.2931H114.337C123.732 40.2931 132.996 37.5287 140.617 32.0372C150.33 25.0328 159.837 14.1246 166.86 0.881592H168.84C179.412 23.6132 187.033 30.2067 209.26 39.3405ZM232.857 232.768C242.663 232.768 256.952 220.589 275.724 196.214H275.742L274.696 194.906C269.242 198.586 264.423 200.435 260.221 200.435C255.476 200.435 251.797 198.679 249.163 195.168C246.529 191.656 245.222 186.576 245.222 179.908L245.745 97.8346C254.337 99.4223 263.9 100.207 274.416 100.207V88.8876H245.745V44.433H243.896L205.231 88.8876H184.984V90.4566L200.244 99.4036L201.029 191.208C201.215 205.59 203.886 216.106 209.06 222.775C214.216 229.443 222.154 232.768 232.857 232.768ZM421.435 190.162L420.389 188.855V188.874L400.926 198.867V194.925L403.298 148.36C403.821 141.188 404.083 134.333 404.083 127.851C404.083 118.568 403.037 110.798 400.926 104.578C398.815 98.3393 394.874 93.5202 389.084 90.1021C383.293 86.6839 375.056 84.9655 364.353 84.9655C359.777 84.9655 352.81 86.4411 343.434 89.4297C334.057 92.3995 323.317 99.1238 311.213 109.546C299.11 119.969 288.426 135.192 279.124 155.178L279.908 156.485L328.566 142.813C325.39 132.82 323.821 124.321 323.821 117.298C323.821 111.508 324.961 107.212 327.239 104.41C329.518 101.608 332.582 100.207 336.448 100.207C342.593 100.207 347.506 104.111 351.185 111.918C354.884 119.726 356.621 130.111 356.453 143.093L327.52 155.719C313.492 162.201 302.36 169.131 294.123 176.49C285.885 183.868 281.757 193.076 281.757 204.115C281.757 212.875 284.522 219.749 290.051 224.755C295.58 229.742 302.901 232.245 312.017 232.245C322.701 232.245 331.554 228.92 338.577 222.252C345.6 215.602 351.652 206.562 356.733 195.168H358.04C357.872 196.924 357.779 199.464 357.779 202.789C357.779 213.492 359.591 221.019 363.177 225.409C366.782 229.779 371.75 231.983 378.045 231.983C384.339 231.983 390.148 229.368 395.397 224.101C400.646 218.834 407.407 210.26 415.644 198.325L421.435 190.162ZM355.948 186.221C353.483 190.947 350.587 194.496 347.263 196.868V196.849C343.938 199.221 340.763 200.398 337.793 200.398C334.991 200.398 332.357 199.221 329.91 196.849C327.464 194.496 326.231 190.854 326.231 185.941C326.231 180.169 328.547 174.379 333.198 168.589C337.83 162.799 345.6 156.224 356.471 148.864L355.948 186.221ZM541.107 100.487C537.764 108.556 533.393 116.569 527.957 124.564C522.522 132.539 516.638 136.536 510.325 136.536C508.046 136.536 505.898 135.883 503.881 134.557C501.864 133.249 499.622 131.363 497.175 128.897C494.897 126.618 492.879 124.862 491.124 123.63C489.368 122.397 487.519 121.781 485.595 121.781C484.717 121.781 483.615 122.397 482.307 123.63C481 124.862 479.973 126.357 479.281 128.094V217.265L491.385 227.258V228.827H420.631V227.258L432.996 217.003V118.624L413.272 128.355L412.226 127.048L417.755 119.166C423.545 110.928 428.177 104.652 431.689 100.356C435.2 96.0603 438.955 92.5114 443.008 89.7097C447.042 86.9079 451.245 85.507 455.635 85.507C461.948 85.507 466.898 87.655 470.503 91.9511C474.089 96.2471 475.901 103.737 475.901 114.44C475.901 117.765 475.807 120.324 475.639 122.061H477.75L484.586 112.591C491.068 103.476 496.111 96.6394 499.716 92.0818C503.302 87.5243 505.992 85.2455 507.729 85.2455C508.961 85.2455 510.53 85.9927 512.473 87.4869C514.397 88.9812 516.321 90.6062 518.263 92.3433C521.588 95.5 524.483 97.9655 526.949 99.7026C529.396 101.458 531.768 102.336 534.047 102.336C535.447 102.336 536.549 102.168 537.334 101.813C538.118 101.458 538.959 100.767 539.837 99.7026L541.144 100.487H541.107Z" fill="url(#paint0_linear_329_6)"/>
<path fill-rule="evenodd" clip-rule="evenodd" d="M710.5 107.8V42.0981H676.561V228.845H710.5V150.993C710.5 139.245 713.078 130.316 718.252 124.171C723.426 118.026 730.579 114.963 739.694 114.963C745.653 114.963 750.378 116.326 753.89 119.035C757.383 121.762 759.942 125.703 761.511 130.877C763.099 136.051 763.883 142.756 763.883 150.993V228.845H797.822V139.151C797.822 123.368 793.694 110.611 785.457 100.879C777.201 91.129 765.732 86.2726 750.995 86.2726C739.601 86.2726 729.832 89.1304 721.67 94.8273C717.062 98.054 713.341 102.376 710.5 107.8ZM602.127 113.898C609.842 113.898 616.416 116.214 621.852 120.865V120.884C627.287 125.535 630.612 132.147 631.845 140.739L666.829 138.89C665.615 128.187 662.01 118.904 656.052 111.003C650.094 103.102 642.417 97.0125 633.04 92.7165C623.645 88.4205 613.353 86.2724 602.127 86.2724C588.287 86.2724 576.127 89.2984 565.704 95.3502C555.282 101.402 547.25 109.901 541.647 120.865C536.024 131.829 533.223 144.586 533.223 159.137C533.223 173.687 536.024 186.445 541.647 197.409C547.25 208.373 555.263 216.872 565.704 222.924C576.127 228.976 588.268 232.002 602.127 232.002C613.708 232.002 624.224 229.816 633.694 225.427C643.164 221.037 650.915 214.687 656.967 206.356C663 198.025 666.643 188.425 667.875 177.554L632.368 175.966C631.135 184.913 627.81 191.88 622.375 196.886C616.939 201.873 610.196 204.376 602.127 204.376C591.257 204.376 582.87 200.379 577.005 192.403C571.121 184.428 568.189 173.333 568.189 159.137C568.189 144.941 571.121 133.846 577.005 125.871C582.889 117.895 591.257 113.898 602.127 113.898ZM843.323 42.0981V69.985H808.076V42.0981H843.323ZM842.277 89.448V228.845H808.338V89.4293H842.277V89.448ZM946.164 115.728V89.4292H909.349V57.8626H875.186V89.4292H853.313V115.728H875.186V185.959C875.186 200.155 878.94 210.858 886.486 218.049C894.013 225.24 905.071 228.826 919.622 228.826H946.182V202.266H925.132C920.033 202.266 916.129 200.865 913.42 198.063C910.712 195.261 909.349 191.227 909.349 185.959V115.728H946.164ZM955.112 120.865C960.715 109.901 968.747 101.402 979.169 95.3502C989.592 89.2984 1001.75 86.2724 1015.59 86.2724C1027.86 86.2724 1038.9 89.0368 1048.73 94.5657C1058.55 100.094 1066.36 108.369 1072.13 119.427C1077.9 130.484 1080.89 143.989 1081.08 159.94L1081.34 168.364H982.177C983.055 179.945 986.379 188.966 992.17 195.448C997.96 201.929 1005.75 205.179 1015.57 205.179C1022.06 205.179 1027.88 203.517 1033.06 200.174C1038.23 196.849 1042.04 192.104 1044.51 185.978L1079.23 188.612C1075.2 201.761 1067.39 212.277 1055.83 220.178C1044.25 228.06 1030.83 232.02 1015.57 232.02C1001.71 232.02 989.573 228.994 979.151 222.943C968.71 216.891 960.697 208.392 955.093 197.428C949.471 186.464 946.669 173.706 946.669 159.156C946.669 144.605 949.471 131.848 955.093 120.884L955.112 120.865ZM1035.86 120.996C1030.42 115.728 1023.66 113.113 1015.61 113.113C1006.31 113.113 998.819 115.971 993.122 121.668C987.425 127.365 983.951 135.397 982.737 145.726H1046.13C1044.73 134.5 1041.31 126.263 1035.88 120.996H1035.86ZM1156.33 113.898C1164.05 113.898 1170.62 116.214 1176.06 120.865V120.884C1181.49 125.535 1184.82 132.147 1186.05 140.739L1221.04 138.89C1219.82 128.187 1216.22 118.904 1210.26 111.003C1204.3 103.102 1196.62 97.0125 1187.25 92.7165C1177.85 88.4205 1167.56 86.2724 1156.33 86.2724C1142.49 86.2724 1130.33 89.2984 1119.91 95.3502C1109.49 101.402 1101.46 109.901 1095.85 120.865C1090.23 131.829 1087.43 144.586 1087.43 159.137C1087.43 173.687 1090.23 186.445 1095.85 197.409C1101.46 208.373 1109.47 216.872 1119.91 222.924C1130.33 228.976 1142.47 232.002 1156.33 232.002C1167.91 232.002 1178.43 229.816 1187.9 225.427C1197.37 221.037 1205.12 214.687 1211.17 206.356C1217.21 198.025 1220.85 188.425 1222.08 177.554L1186.57 175.966C1185.34 184.913 1182.02 191.88 1176.58 196.886C1171.15 201.873 1164.4 204.376 1156.33 204.376C1145.46 204.376 1137.08 200.379 1131.21 192.403C1125.33 184.428 1122.39 173.333 1122.39 159.137C1122.39 144.941 1125.33 133.846 1131.21 125.871C1137.09 117.895 1145.46 113.898 1156.33 113.898ZM1312.04 89.4292V115.728H1275.22V185.959C1275.22 191.227 1276.59 195.261 1279.3 198.063C1282 200.865 1285.91 202.266 1291.01 202.266H1312.06V228.826H1285.5C1270.95 228.826 1259.89 225.24 1252.36 218.049C1244.81 210.858 1241.06 200.155 1241.06 185.959V115.728H1219.19V89.4292H1241.06V57.8626H1275.22V89.4292H1312.04ZM1375.98 111.787C1382.48 111.787 1388.43 113.805 1393.87 117.839L1393.85 117.82C1399.29 121.855 1402.61 127.197 1403.84 133.865L1438.31 132.296C1436.03 118.082 1429.45 106.819 1418.58 98.4883C1407.69 90.1577 1394.11 85.9925 1377.81 85.9925C1365.18 85.9925 1354.4 87.8043 1345.46 91.3905C1336.53 94.9955 1329.69 100.076 1324.95 106.651C1320.22 113.226 1317.75 121.071 1317.59 130.186C1317.75 138.591 1320.13 145.483 1324.68 150.825C1329.24 156.186 1335.52 160.389 1343.49 163.452C1351.47 166.534 1362.04 169.373 1375.19 172.007C1377.66 172.53 1379.49 172.959 1380.72 173.314C1386.32 174.547 1390.68 175.686 1393.74 176.732C1396.8 177.778 1399.38 179.403 1401.49 181.589C1403.6 183.793 1404.74 186.819 1404.91 190.666C1404.91 195.934 1402.41 199.837 1397.42 202.378C1392.41 204.918 1386.49 206.188 1379.66 206.188C1373.86 206.188 1368.86 205.217 1364.66 203.293C1360.45 201.369 1356.98 198.698 1354.27 195.28C1351.54 191.862 1349.75 187.697 1348.87 182.784L1314.41 184.633C1315.1 194.29 1318.26 202.695 1323.88 209.886C1329.48 217.078 1337.16 222.55 1346.89 226.324C1356.64 230.097 1367.81 231.983 1380.44 231.983C1391.48 231.983 1401.51 230.507 1410.55 227.519C1419.59 224.549 1426.76 220.029 1432.12 213.977C1437.46 207.925 1440.14 200.08 1440.14 191.488C1440.14 182.896 1437.86 175.742 1433.3 170.045C1428.74 164.348 1422.26 159.884 1413.84 156.634C1405.43 153.384 1394.47 150.62 1380.96 148.341C1372.56 146.585 1365.8 144.363 1360.72 141.635C1355.63 138.908 1353 134.93 1352.83 129.663C1352.66 124.227 1354.76 119.894 1359.15 116.644C1363.52 113.412 1369.14 111.787 1375.98 111.787Z" fill="#FAFAF0"/>
<defs>
<linearGradient id="paint0_linear_329_6" x1="0.13672" y1="116.825" x2="541.144" y2="116.825" gradientUnits="userSpaceOnUse">
<stop stop-color="#FF6600"/>
<stop offset="1" stop-color="#FFBE00"/>
</linearGradient>
</defs>
</svg>
