<svg viewBox="0 0 600 96" fill="none" xmlns="http://www.w3.org/2000/svg">
<path d="M124.168 51.5089V78.3364C124.168 87.9508 133.702 95.6004 134.133 95.7743H107.654C107.124 95.7743 106.771 95.4166 106.771 94.88V51.33C106.771 47.0376 97.2329 43.4606 92.2873 41.9404C91.4925 41.6721 91.4925 40.5096 92.2873 40.2413C97.2329 38.7211 106.771 35.1441 106.771 30.8517V0C106.771 10.731 124.168 18.8687 124.168 18.8687V31.0305C124.168 35.3229 133.706 38.8999 138.652 40.4202C139.447 40.6884 139.447 41.8509 138.652 42.1192C133.706 43.6394 124.168 47.2164 124.168 51.5089Z" fill="url(#gradient)"/>
<path d="M134.148 95.7743H134.133C134.143 95.7783 134.148 95.7783 134.148 95.7743Z" fill="url(#gradient)"/>
<path d="M23.3147 20.4783C23.3147 31.5993 33.9674 41.3631 44.2787 50.8139C53.9498 59.678 63.3206 68.2668 63.3206 77.4421C63.3206 86.2058 57.227 93.8069 47.9541 93.8069C39.476 93.8069 27.8187 85.0432 24.1095 77.5316C23.7562 76.8162 22.7848 76.9056 22.5199 77.5316C19.0757 85.4904 8.30144 95.8637 0 95.8637C6.52466 95.9933 32.3237 95.9352 50.9185 95.8932H51.0914L51.1327 95.8931L51.5369 95.8921H51.5705L51.6099 95.8919C58.3879 95.8768 64.1449 95.8637 67.5596 95.8637C80.365 95.8637 86.0171 86.3846 86.0171 73.9546C86.0171 62.5367 76.0607 51.6415 66.654 41.348C58.2318 32.1317 50.2502 23.3976 50.2502 15.2023C50.2502 7.60113 58.1101 7.5117 59.7881 7.5117C67.6479 7.5117 78.0689 12.8772 82.043 22.1774C82.3079 22.8928 83.2794 22.8928 83.6326 22.2668C89.2847 11.8935 99.3524 3.84527 103.415 3.84527H44.3332C35.237 3.84527 23.3147 6.43862 23.3147 20.4783Z" fill="url(#gradient)"/>
<path d="M579.511 74.2228C578.549 73.2619 577.536 72.2966 576.514 71.3212C570.97 66.0336 565.116 60.4499 565.116 53.6551C565.116 46.501 573.771 41.3144 580.571 41.3144C592.14 41.3144 599.117 44.0866 599.47 55.3541C599.47 55.8907 599.117 56.2484 598.587 56.2484H596.556C596.114 56.2484 595.761 55.8907 595.673 55.533C595.319 53.1185 593.553 45.7857 585.163 45.7857C582.072 45.7857 579.158 48.1107 579.158 51.7771C579.158 54.5493 582.072 57.858 585.693 61.5245C586.33 62.1788 586.99 62.8458 587.662 63.5243C593.414 69.3369 600 75.9917 600 82.7182C600 91.5713 592.935 95.9531 585.605 95.9531C585.4 95.9531 585.123 95.9602 584.785 95.9689C580.019 96.0907 563.038 96.525 562.379 81.9134C562.379 81.3768 562.732 81.0191 563.262 81.0191H565.293C565.734 81.0191 566.088 81.3768 566.176 81.7346C566.971 87.4577 573.771 91.929 577.392 91.929C583.044 91.929 586.311 88.352 586.311 85.5798C586.311 80.6614 579.511 74.2228 579.511 74.2228Z" fill="url(#gradient)"/>
<path d="M256.55 68.5891C256.55 82.3605 262.202 91.2136 269.797 91.8396C270.327 91.929 270.768 91.929 271.298 91.929C281.454 91.8396 285.782 87.4577 286.311 81.824C286.4 81.3768 286.753 81.0191 287.195 81.0191H289.226C289.756 81.0191 290.109 81.3768 290.109 81.9134C289.579 92.555 279.6 95.6848 268.737 95.9531H264.233C250.368 95.9531 240.212 88.5308 240.212 68.5891C240.212 48.6472 250.368 41.225 264.233 41.225H266.883C278.452 41.225 289.579 43.9972 290.197 55.3541C290.197 55.8013 289.844 56.2484 289.314 56.2484H287.283C286.841 56.2484 286.488 55.8907 286.4 55.4436C285.782 49.7204 281.189 45.4279 271.298 45.2491C271.033 45.2491 270.79 45.2715 270.548 45.2938C270.305 45.3162 270.062 45.3385 269.797 45.3385C262.29 45.9645 256.55 54.8176 256.55 68.5891Z" fill="url(#gradient)"/>
<path d="M351.928 41.225C361.554 41.225 369.326 49.0944 369.326 58.8417V94.9695C369.326 95.506 368.973 95.8637 368.443 95.8637H352.811C352.281 95.8637 351.928 95.506 351.928 94.9695V41.225Z" fill="url(#gradient)"/>
<path d="M328.437 41.225C316.603 41.225 313.689 46.1434 313.689 46.1434V18.8687C313.689 18.8687 296.291 10.731 296.291 0V94.9695C296.291 95.506 296.644 95.8637 297.174 95.8637H312.805C313.335 95.8637 313.689 95.506 313.689 94.9695V57.1426C313.689 52.5819 316.691 44.8914 328.437 44.8914C340.183 44.8914 341.331 53.2974 341.331 57.7686V95.0589C341.331 95.5954 341.684 95.9531 342.214 95.9531H344.157C344.686 95.9531 345.04 95.5954 345.04 95.0589V57.6792C345.128 45.1597 337.621 41.225 328.437 41.225Z" fill="url(#gradient)"/>
<path fill-rule="evenodd" clip-rule="evenodd" d="M185.546 78.3364C185.546 88.1731 195.525 95.9531 195.525 95.9531H153.223C145.54 95.9531 136.885 91.6607 137.15 80.4826C137.327 70.1093 143.156 66.0851 151.192 65.5486V65.4592H168.148V45.0702H157.462C147.483 45.0702 145.628 51.2406 145.452 55.3541C145.452 55.8013 145.01 56.1589 144.569 56.1589H142.626C142.096 56.1589 141.743 55.8013 141.743 55.2647C142.096 45.6068 147.748 41.8509 155.52 41.3144V41.225H168.148C177.774 41.225 185.546 49.0944 185.546 58.8417V78.3364ZM168.237 92.1078V69.215H151.281C142.361 70.0198 140.948 76.3691 140.948 80.2143C140.948 84.3279 141.654 92.1078 153.312 92.1078H168.237Z" fill="url(#gradient)"/>
<path d="M223.697 41.3144L217.339 41.225C207.713 41.225 200.029 49.0944 200.029 58.8417V94.9695C200.029 95.506 200.383 95.8637 200.913 95.8637H216.544C217.074 95.8637 217.427 95.506 217.427 94.9695V45.0702H221.754C231.822 45.0702 233.588 51.2406 233.765 55.3541C233.765 55.8013 234.207 56.1589 234.648 56.1589H236.591C237.121 56.1589 237.474 55.7118 237.474 55.2647C237.121 45.6068 231.469 41.8509 223.697 41.3144Z" fill="url(#gradient)"/>
<path fill-rule="evenodd" clip-rule="evenodd" d="M435.384 41.225C448.278 40.7778 458.699 46.9482 458.699 61.1668V68.3207C458.699 68.8573 458.346 69.215 457.816 69.215L424.963 69.3044C425.14 82.7182 430.792 91.303 438.21 91.929C438.74 92.0184 439.182 92.0184 439.711 92.0184C449.868 91.929 454.195 87.5472 454.813 81.824C454.901 81.3768 455.255 81.0191 455.696 81.0191H457.727C458.257 81.0191 458.611 81.3768 458.611 81.9134C458.081 92.555 448.101 95.6848 437.239 95.9531H432.735C418.87 95.9531 408.714 88.5308 408.714 68.5891C408.714 48.6472 418.87 41.225 432.735 41.225H435.384ZM454.99 61.1668C454.99 54.1022 448.013 45.2491 439.888 45.2491C426.008 45.2491 425.265 62.7294 425.158 65.248C425.15 65.4375 425.146 65.5423 425.14 65.5486L454.99 65.4591V61.1668Z" fill="url(#gradient)"/>
<path d="M398.734 30.9411V18.8687C398.734 18.8687 381.336 10.731 381.336 0.0894306V30.9411C381.336 36.7537 363.939 41.225 363.939 41.225C363.939 41.225 381.336 45.6962 381.336 51.5089V95.0589C381.336 95.5954 381.69 95.9531 382.22 95.9531H397.851C398.381 95.9531 398.734 95.5954 398.734 95.0589V51.5089C398.734 45.6962 416.132 41.225 416.132 41.225C416.132 41.225 398.734 36.7537 398.734 30.9411Z" fill="url(#gradient)"/>
<path d="M547.895 18.8687V30.9411C547.895 36.7537 565.205 41.225 565.205 41.225C565.205 41.225 547.895 45.6962 547.895 51.5089V95.0589C547.895 95.5954 547.542 95.9531 547.012 95.9531H531.381C530.851 95.9531 530.497 95.5954 530.497 95.0589V51.5089C530.497 45.6962 513.1 41.225 513.1 41.225C513.1 41.225 530.497 36.7537 530.497 30.9411V0.0894306C530.497 10.731 547.895 18.8687 547.895 18.8687Z" fill="url(#gradient)"/>
<path d="M272.629 61.249C272.414 60.6624 271.595 60.6624 271.381 61.249L269.865 65.3979C269.797 65.5823 269.654 65.7277 269.471 65.796L265.374 67.3312C264.795 67.5483 264.795 68.3779 265.374 68.5949L269.471 70.1302C269.654 70.1984 269.797 70.3438 269.865 70.5282L271.381 74.6772C271.595 75.2637 272.414 75.2637 272.629 74.6772L274.145 70.5282C274.212 70.3438 274.356 70.1984 274.538 70.1302L278.635 68.5949C279.215 68.3779 279.215 67.5483 278.635 67.3312L274.538 65.796C274.356 65.7277 274.212 65.5823 274.145 65.3979L272.629 61.249Z" fill="url(#gradient)"/>
<path d="M494.996 91.7501C487.401 91.1242 481.749 82.2711 481.749 68.4996C481.749 54.7282 487.489 45.8751 494.996 45.2491C495.261 45.2491 495.503 45.2268 495.746 45.2044C495.989 45.182 496.232 45.1597 496.497 45.1597C506.388 45.3385 510.98 49.6309 511.598 55.3541C511.687 55.8013 512.04 56.1589 512.482 56.1589H514.513C515.043 56.1589 515.396 55.7118 515.396 55.2647C514.778 43.9077 503.65 41.1355 492.081 41.1355H489.432C475.567 41.1355 465.411 48.5578 465.411 68.4996C465.411 88.4414 475.567 95.8637 489.432 95.8637H493.936C504.798 95.5954 514.778 92.4656 515.308 81.824C515.308 81.2874 514.954 80.9297 514.424 80.9297H512.393C511.952 80.9297 511.598 81.2874 511.51 81.7346C510.98 87.3683 506.653 91.7501 496.497 91.8396C495.967 91.8396 495.525 91.8396 494.996 91.7501Z" fill="url(#gradient)"/>
<path d="M497.827 61.1596C497.613 60.573 496.794 60.573 496.579 61.1596L495.063 65.3085C494.996 65.4929 494.852 65.6383 494.67 65.7066L490.573 67.2418C489.994 67.4589 489.994 68.2885 490.573 68.5055L494.67 70.0408C494.852 70.109 494.996 70.2544 495.063 70.4388L496.579 74.5878C496.794 75.1743 497.613 75.1743 497.827 74.5878L499.344 70.4388C499.411 70.2544 499.555 70.109 499.737 70.0408L503.834 68.5055C504.413 68.2885 504.413 67.4589 503.834 67.2418L499.737 65.7066C499.555 65.6383 499.411 65.4929 499.344 65.3085L497.827 61.1596Z" fill="url(#gradient)"/>
<defs>
<linearGradient id="gradient" x1="1.11759e-06" y1="48" x2="600" y2="48" gradientUnits="userSpaceOnUse">
<stop stop-color="#FF6600"/>
<stop offset="1" stop-color="#FFBE00"/>
</linearGradient>
</defs>
</svg>
