<svg viewBox="-2 -2 24 24" fill="none" xmlns="http://www.w3.org/2000/svg">
<path d="M8.25032 1.15989C9.01162 -0.215014 10.9884 -0.215015 11.7497 1.15988L13.9983 5.22085C14.1801 5.54925 14.4507 5.81986 14.7792 6.0017L18.8401 8.25032C20.215 9.01162 20.215 10.9884 18.8401 11.7497L14.7792 13.9983C14.4507 14.1801 14.1801 14.4507 13.9983 14.7792L11.7497 18.8401C10.9884 20.215 9.01162 20.215 8.25032 18.8401L6.0017 14.7792C5.81986 14.4507 5.54925 14.1801 5.22085 13.9983L1.15989 11.7497C-0.215014 10.9884 -0.215015 9.01163 1.15988 8.25032L5.22085 6.0017C5.54925 5.81986 5.81986 5.54925 6.0017 5.22085L8.25032 1.15989Z" fill="#FAFAF0"/>
</svg>
