<svg viewBox="0 0 32 32" fill="none" xmlns="http://www.w3.org/2000/svg">
<circle cx="16" cy="16" r="16" fill="#FAFAF0"/>
<path fill-rule="evenodd" clip-rule="evenodd" d="M22.0496 11.8654H19.4138C18.57 11.8654 17.8111 12.38 17.4978 13.1649L14.9272 19.6027C14.3004 21.1725 12.7828 22.2018 11.0951 22.2018H7V20.1345H11.0951C11.939 20.1345 12.6978 19.6198 13.0112 18.835L15.5817 12.3971C16.2085 10.8274 17.7261 9.79809 19.4138 9.79809H22.0495L20.7156 8.46179L22.1747 7L25.9998 10.8318L22.1747 14.6636L20.7156 13.2018L22.0496 11.8654Z" fill="#0E0A09"/>
<mask id="path-3-outside-1_1309_4378" maskUnits="userSpaceOnUse" x="6" y="8.7981" width="22" height="18" fill="black">
<rect fill="white" x="6" y="8.7981" width="22" height="18"/>
<path fill-rule="evenodd" clip-rule="evenodd" d="M7 11.8654H11.0951C11.939 11.8654 12.6978 12.38 13.0112 13.1649L15.5817 19.6027C16.2085 21.1725 17.7261 22.2018 19.4138 22.2018H22.0495L20.7154 23.5383L22.1746 25L25.9996 21.1682L22.1746 17.3364L20.7154 18.7982L22.0493 20.1345H19.4138C18.57 20.1345 17.8111 19.6198 17.4978 18.835L14.9272 12.3971C14.3004 10.8274 12.7828 9.7981 11.0951 9.7981H7V11.8654Z"/>
</mask>
<path fill-rule="evenodd" clip-rule="evenodd" d="M7 11.8654H11.0951C11.939 11.8654 12.6978 12.38 13.0112 13.1649L15.5817 19.6027C16.2085 21.1725 17.7261 22.2018 19.4138 22.2018H22.0495L20.7154 23.5383L22.1746 25L25.9996 21.1682L22.1746 17.3364L20.7154 18.7982L22.0493 20.1345H19.4138C18.57 20.1345 17.8111 19.6198 17.4978 18.835L14.9272 12.3971C14.3004 10.8274 12.7828 9.7981 11.0951 9.7981H7V11.8654Z" fill="#0E0A09"/>
<path d="M7 11.8654H6V12.8654H7V11.8654ZM13.0112 13.1649L12.0825 13.5357L13.0112 13.1649ZM15.5817 19.6027L16.5104 19.2319V19.2319L15.5817 19.6027ZM22.0495 22.2018L22.7573 22.9082L24.4607 21.2018H22.0495V22.2018ZM20.7154 23.5383L20.0077 22.8318L19.3024 23.5383L20.0077 24.2447L20.7154 23.5383ZM22.1746 25L21.4669 25.7065L22.1746 26.4155L22.8823 25.7065L22.1746 25ZM25.9996 21.1682L26.7074 21.8747L27.4126 21.1682L26.7074 20.4618L25.9996 21.1682ZM22.1746 17.3364L22.8823 16.6299L22.1746 15.921L21.4669 16.6299L22.1746 17.3364ZM20.7154 18.7982L20.0077 18.0917L19.3024 18.7982L20.0077 19.5047L20.7154 18.7982ZM22.0493 20.1345V21.1345H24.4605L22.757 19.428L22.0493 20.1345ZM17.4978 18.835L18.4265 18.4641V18.4641L17.4978 18.835ZM14.9272 12.3971L13.9985 12.7679L14.9272 12.3971ZM7 9.7981V8.7981H6V9.7981H7ZM11.0951 10.8654H7V12.8654H11.0951V10.8654ZM13.9399 12.7941C13.4751 11.63 12.3489 10.8654 11.0951 10.8654V12.8654C11.529 12.8654 11.9205 13.13 12.0825 13.5357L13.9399 12.7941ZM16.5104 19.2319L13.9399 12.7941L12.0825 13.5357L14.653 19.9736L16.5104 19.2319ZM19.4138 21.2018C18.1361 21.2018 16.9858 20.4224 16.5104 19.2319L14.653 19.9736C15.4312 21.9225 17.3162 23.2018 19.4138 23.2018V21.2018ZM22.0495 21.2018H19.4138V23.2018H22.0495V21.2018ZM21.4231 24.2447L22.7573 22.9082L21.3418 21.4953L20.0077 22.8318L21.4231 24.2447ZM22.8823 24.2936L21.4231 22.8318L20.0077 24.2447L21.4669 25.7065L22.8823 24.2936ZM25.2919 20.4618L21.4669 24.2936L22.8823 25.7065L26.7074 21.8747L25.2919 20.4618ZM21.4669 18.0429L25.2919 21.8747L26.7074 20.4618L22.8823 16.6299L21.4669 18.0429ZM21.4231 19.5047L22.8823 18.0429L21.4669 16.6299L20.0077 18.0917L21.4231 19.5047ZM22.757 19.428L21.4231 18.0917L20.0077 19.5047L21.3416 20.841L22.757 19.428ZM19.4138 21.1345H22.0493V19.1345H19.4138V21.1345ZM16.5691 19.2058C17.0338 20.3698 18.16 21.1345 19.4138 21.1345V19.1345C18.9799 19.1345 18.5884 18.8698 18.4265 18.4641L16.5691 19.2058ZM13.9985 12.7679L16.5691 19.2058L18.4265 18.4641L15.8559 12.0263L13.9985 12.7679ZM11.0951 10.7981C12.3728 10.7981 13.5231 11.5774 13.9985 12.7679L15.8559 12.0263C15.0777 10.0774 13.1927 8.7981 11.0951 8.7981V10.7981ZM7 10.7981H11.0951V8.7981H7V10.7981ZM8 11.8654V9.7981H6V11.8654H8Z" fill="#FAFAF0" mask="url(#path-3-outside-1_1309_4378)"/>
</svg>
